{"title":"Evil Dead II - La Casa 2 (1987).DVDrip.XviD - Italian English.Ac","uid":11973263,"size":1465350101,"categoryP":"video","categoryS":"movies","magnet":"?xt=urn:btih:97ca842c892a23dade8bc40fa7d7ea4401b91eaa&amp;dn=Evil+Dead+II+-+La+Casa+2+%281987%29.DVDrip.XviD+-+Italian+English.Ac&amp;tr=udp%3A%2F%2Ftracker.openbittorrent.com%3A80&amp;tr=udp%3A%2F%2Fopen.demonii.com%3A1337&amp;tr=udp%3A%2F%2Ftracker.coppersurfer.tk%3A6969&amp;tr=udp%3A%2F%2Fexodus.desync.com%3A6969","seeders":1,"leechers":2,"uploader":"robbyrs4","files":9,"time":1432921670,"description":"Evil Dead II - La Casa 2 (1987).DVDrip.XviD - Italian English.Ac3.5.1.Multisub.MIRCrew\n\n[center]\n\n[color=red][b][img]http://s19.postimg.org/9qdjr7p77/Original_release_2.png[/img]\n\n[u]NO FOUND ONLY ORIGINAL RELEASE[/u]\n\nLa Casa 2 - Evil Dead II (1987)\n\n[img]http://extraimago.com/images/2015/05/29/w90711.jpg[/img]\n\n\n[URL=http://www.imdb.com/title/tt0092991/][IMG]http://www.userlogos.org/files/logos/Sucka/imdb_new.png[/IMG][/URL]  \n\n[img]http://s19.postimg.org/vz5tzn42b/1_scheda.png[/img]\n\nTitolo originale \tEvil Dead II: Dead by Dawn\nLingua originale \tinglese\nPaese di produzione \tStati Uniti d'America\nAnno \t1987\nDurata \t79 min.\nRapporto \t1,85:1\nGenere \thorror, splatter, comico, fantastico, commedia nera\nRegia \tSam Raimi\nSoggetto \tSam Raimi, Scott Spiegel\nSceneggiatura \tSam Raimi, Scott Spiegel\nProduttore \tRobert G. Tapert\nProduttore esecutivo \tAlex De Benedetti, Irvin Shapiro\nCasa di produzione \tDe Laurentiis Entertainment Group\nFotografia \tPeter Deming\nMontaggio \tKaye Davis\nEffetti speciali \tVern Hyde, Dale Johnson\nMusiche \tJoseph LoDuca\nScenografia \tRandy Bennet, Philip Duffin\nCostumi \tVicky Graef, Randall Ouzts\nTrucco \tMark Shostrom\n\n[img]http://s19.postimg.org/q8fnlww2b/1_cast.png[/img]\n\n\n\n    Bruce Campbell: Ashley &quot;Ash&quot; J. Williams\n    Sarah Berry: Annie Knowby\n    Dan Hicks: Jake\n    Kassie DePaiva: Bobby Joe\n    Richard Domeyer: Ed Getley\n    John Peakes: Professor Raimond Knowby\n    Lou Hancock: Henrietta Knowby\n    Denise Bixler: Linda\n    Ted Raimi: Henrietta posseduta\n    Sam Raimi: Cavaliere medievale\n\n   \n[img]http://s19.postimg.org/okgi79i6r/1_trama.png[/img]. \n\nAsh Williams e la sua fidanzata Linda vanno in vacanza nei boschi, per soggiornare in una rustica casa di legno molto isolata. Mentre Linda si sta cambiando, Ash trova un sinistro libro, con la copertina in pelle umana e apparentemente scritto col sangue. Lo accompagna un magnetofono, in cui un certo professor Knowby, archeologo, ha registrato i suoi appunti riguardanti il ritrovamento del testo, la sua traduzione durante il soggiorno nei boschi con la moglie, e gli strani eventi che han fatto seguito alla lettura dei primi passaggi dell'opera......\n\n[img]http://s19.postimg.org/fzn6g380j/1_story.png[/img]\n\nThe lone survivor of an onslaught of flesh-possessing spirits holds up in a cabin with a group of strangers while the demons continue their attack..................\n &lt;a href=&quot;\nhttp://extraimago.com/images/2015/05/29/vlcsnap-2015-05-29-17h26m33s198.png[/img]&quot; rel=&quot;nofollow&quot; target=&quot;_NEW&quot;&gt;\nhttp://extraimago.com/images/2015/05/29/vlcsnap-2015-05-29-17h26m33s198.png[/img]&lt;/a&gt;\nttp://extraimago.com/images/2015/05/29/vlcsnap-2015-05-29-17h26m39s10.png[/img] &lt;a href=&quot;\nhttp://extraimago.com/images/2015/05/29/vlcsnap-2015-05-29-17h26m44s54.png[/img]&quot; rel=&quot;nofollow&quot; target=&quot;_NEW&quot;&gt;\nhttp://extraimago.com/images/2015/05/29/vlcsnap-2015-05-29-17h26m44s54.png[/img]&lt;/a&gt;\n\n\n[IMG]http://img153.imageshack.us/img153/3158/restateinseedblood.gif[/img]\n\n\n[img]http://imgur.com/lvhU6.gif[/img]\n\n\n[img]http://s19.postimg.org/a2jaz9qvn/1_dati.png[/img]\n\n\n[spoiler]\nGeneral\nComplete name                            : F:La Casa 2 - Evil Dead II (1987).ita.eng.MultiSub.MIRCrewLa Casa 2 - Evil Dead II (1987).ita.eng.MultiSub.MIRCrew.avi\nFormat                                   : AVI\nFormat/Info                              : Audio Video Interleave\nFile size                                : 1.36 GiB\nDuration                                 : 1h 20mn\nOverall bit rate                         : 2 411 Kbps\nWriting application                      : VirtualDubMod 1.5.10.2 (build 2540/release)\nWriting library                          : VirtualDubMod build 2540/release\n\nVideo\nID                                       : 0\nFormat                                   : MPEG-4 Visual\nFormat profile                           : Simple@L3\nFormat settings, BVOP                    : Yes\nFormat settings, QPel                    : No\nFormat settings, GMC                     : No warppoints\nFormat settings, Matrix                  : Default (H.263)\nCodec ID                                 : XVID\nCodec ID/Hint                            : XviD\nDuration                                 : 1h 20mn\nBit rate                                 : 1 501 Kbps\nWidth                                    : 720 pixels\nHeight                                   : 384 pixels\nDisplay aspect ratio                     : 1.875\nFrame rate                               : 25.000 fps\nColor space                              : YUV\nChroma subsampling                       : 4:2:0\nBit depth                                : 8 bits\nScan type                                : Progressive\nCompression mode                         : Lossy\nBits/(Pixel*Frame)                       : 0.217\nStream size                              : 867 MiB (62%)\n\nAudio #1\nID                                       : 1\nFormat                                   : AC-3\nFormat/Info                              : Audio Coding 3\nMode extension                           : CM (complete main)\nCodec ID                                 : 2000\nDuration                                 : 1h 20mn\nBit rate mode                            : Constant\nBit rate                                 : 448 Kbps\nChannel(s)                               : 6 channels\nChannel positions                        : Front: L C R, Side: L R, LFE\nSampling rate                            : 48.0 KHz\nBit depth                                : 16 bits\nCompression mode                         : Lossy\nStream size                              : 259 MiB (19%)\nAlignment                                : Split accross interleaves\nInterleave, duration                     : 40 ms (1.00 video frame)\nInterleave, preload duration             : 500 ms\n\nAudio #2\nID                                       : 2\nFormat                                   : AC-3\nFormat/Info                              : Audio Coding 3\nMode extension                           : CM (complete main)\nCodec ID                                 : 2000\nDuration                                 : 1h 20mn\nBit rate mode                            : Constant\nBit rate                                 : 448 Kbps\nChannel(s)                               : 6 channels\nChannel positions                        : Front: L C R, Side: L R, LFE\nSampling rate                            : 48.0 KHz\nBit depth                                : 16 bits\nCompression mode                         : Lossy\nStream size                              : 259 MiB (19%)\nAlignment                                : Split accross interleaves\nInterleave, duration                     : 40 ms (1.00 video frame)\nInterleave, preload duration             : 500 ms\n\n\n[/spoiler]\n\n[/color][/b][/center]","torrent":{"xt":"urn:btih:97ca842c892a23dade8bc40fa7d7ea4401b91eaa","amp;dn":"Evil+Dead+II+-+La+Casa+2+%281987%29.DVDrip.XviD+-+Italian+English.Ac","amp;tr":["udp%3A%2F%2Ftracker.openbittorrent.com%3A80","udp%3A%2F%2Fopen.demonii.com%3A1337","udp%3A%2F%2Ftracker.coppersurfer.tk%3A6969","udp%3A%2F%2Fexodus.desync.com%3A6969"],"infoHash":"97ca842c892a23dade8bc40fa7d7ea4401b91eaa","infoHashBuffer":{"type":"Buffer","data":[151,202,132,44,137,42,35,218,222,139,196,15,167,215,234,68,1,185,30,170]},"announce":[],"urlList":[]}}